<svg width="103" height="103" viewBox="0 0 103 103" fill="none" xmlns="http://www.w3.org/2000/svg">
<g filter="url(#filter0_d_1_18)">
<circle cx="51.5" cy="47.5" r="47" fill="#E8F1F2" stroke="#006494"/>
<mask id="mask0_1_18" style="mask-type:alpha" maskUnits="userSpaceOnUse" x="15" y="11" width="59" height="72">
<rect x="15" y="11" width="59" height="72" fill="#D9D9D9"/>
</mask>
<g mask="url(#mask0_1_18)">
<circle cx="51" cy="47" r="33.5" stroke="#1B98E0" stroke-width="5"/>
</g>
<g clip-path="url(#clip0_1_18)">
<path d="M46.3438 58.2277L45.2277 59.3437C45.0789 59.4926 44.9077 59.567 44.7143 59.567C44.5208 59.567 44.3497 59.4926 44.2009 59.3437L33.7991 48.942C33.6503 48.7931 33.5759 48.622 33.5759 48.4286C33.5759 48.2351 33.6503 48.064 33.7991 47.9152L44.2009 37.5134C44.3497 37.3646 44.5208 37.2902 44.7143 37.2902C44.9077 37.2902 45.0789 37.3646 45.2277 37.5134L46.3438 38.6295C46.4926 38.7783 46.567 38.9494 46.567 39.1428C46.567 39.3363 46.4926 39.5074 46.3438 39.6562L37.5714 48.4286L46.3438 57.2009C46.4926 57.3497 46.567 57.5208 46.567 57.7143C46.567 57.9077 46.4926 58.0789 46.3438 58.2277ZM59.5357 34.4107L51.2098 63.2277C51.1503 63.4211 51.035 63.5662 50.8638 63.6629C50.6927 63.7597 50.5179 63.7783 50.3393 63.7187L48.9554 63.3393C48.7619 63.2798 48.6168 63.1644 48.5201 62.9933C48.4234 62.8222 48.4048 62.6399 48.4643 62.4464L56.7902 33.6295C56.8497 33.436 56.965 33.2909 57.1362 33.1942C57.3073 33.0975 57.4821 33.0789 57.6607 33.1384L59.0446 33.5178C59.2381 33.5774 59.3832 33.6927 59.4799 33.8638C59.5766 34.035 59.5952 34.2173 59.5357 34.4107ZM74.2009 48.942L63.7991 59.3437C63.6503 59.4926 63.4792 59.567 63.2857 59.567C63.0923 59.567 62.9211 59.4926 62.7723 59.3437L61.6563 58.2277C61.5074 58.0789 61.433 57.9077 61.433 57.7143C61.433 57.5208 61.5074 57.3497 61.6563 57.2009L70.4286 48.4286L61.6563 39.6562C61.5074 39.5074 61.433 39.3363 61.433 39.1428C61.433 38.9494 61.5074 38.7783 61.6563 38.6295L62.7723 37.5134C62.9211 37.3646 63.0923 37.2902 63.2857 37.2902C63.4792 37.2902 63.6503 37.3646 63.7991 37.5134L74.2009 47.9152C74.3497 48.064 74.4241 48.2351 74.4241 48.4286C74.4241 48.622 74.3497 48.7931 74.2009 48.942Z" fill="#13293D"/>
</g>
</g>
<defs>
<filter id="filter0_d_1_18" x="0" y="0" width="103" height="103" filterUnits="userSpaceOnUse" color-interpolation-filters="sRGB">
<feFlood flood-opacity="0" result="BackgroundImageFix"/>
<feColorMatrix in="SourceAlpha" type="matrix" values="0 0 0 0 0 0 0 0 0 0 0 0 0 0 0 0 0 0 127 0" result="hardAlpha"/>
<feOffset dy="4"/>
<feGaussianBlur stdDeviation="2"/>
<feComposite in2="hardAlpha" operator="out"/>
<feColorMatrix type="matrix" values="0 0 0 0 0 0 0 0 0 0 0 0 0 0 0 0 0 0 0.25 0"/>
<feBlend mode="normal" in2="BackgroundImageFix" result="effect1_dropShadow_1_18"/>
<feBlend mode="normal" in="SourceGraphic" in2="effect1_dropShadow_1_18" result="shape"/>
</filter>
<clipPath id="clip0_1_18">
<rect width="40" height="40" fill="white" transform="translate(34 27)"/>
</clipPath>
</defs>
</svg>
